<svg id="Layer_1" data-name="Layer 1" xmlns="http://www.w3.org/2000/svg" viewBox="0 0 696.14 507.05"><defs><style>.cls-1{fill:#ffa017;}.cls-2{fill:#733800;}.cls-3{fill:#01aa00;stroke:#00e761;stroke-miterlimit:10;}.cls-4{fill:#b90004;}.cls-5{fill:#ffdb45;}.cls-6{fill:#fff;}</style></defs><title>burger</title><rect id="Bun_Bot" data-name="Bun Bot" class="cls-1" x="55.41" y="377.09" width="597.14" height="129.96" rx="47.96" ry="47.96"/><rect id="Patty" class="cls-2" y="233.2" width="696.14" height="148.89" rx="74.44" ry="74.44"/><path id="letttuce" class="cls-3" d="M310,508.47c62.72-114.73,177.07-53.72,175.44-53.07,0,0,71.4-16.58,110.47-7.89s60-11.94,112.4,5.37,147.16,23.95,147.16,23.95,79.87-31.28,97.23-5.72c8.72,12.83-.94,20.86,11.69,25.67,3,1.12,2.2,6-.92,6-29.07-.75-75.85-2.81-87.76-8.43-17.63-8.32-65.84-.5-65.84-.5s-22.89,7.06-35.67,19.46-55.86-12.92-55.86-12.92-51.47,18.24-62.63-5.85-42.2-6.13-42.2-6.13-4,15.61-35.29,4.44-43.72,6.95-60.23-3.36-47.53,26.37-58.25,9.91-58.88,42.5-72.8,12.86-21.86,26-37.66,5.1S310,508.47,310,508.47Z" transform="translate(-284.14 -237.91)"/><rect id="tomato" class="cls-4" x="43.35" y="185.4" width="611.07" height="47.8" rx="12" ry="12"/><path id="Bun_top" data-name="Bun top" class="cls-1" d="M890.59,428.8H389.37c-26.37,0-48-18.42-48-40.94V323.77c0-22.51,48-40.94,48-40.94q252.23-89.85,501.22,0s48,18.43,48,40.94v64.09C938.55,410.38,917,428.8,890.59,428.8Z" transform="translate(-284.14 -237.91)"/><polyline id="Cheese" class="cls-5" points="614.58 190.89 484.7 279.41 98.73 190.89"/><g id="sesame_seeds" data-name="sesame seeds"><ellipse class="cls-6" cx="368.47" cy="17.27" rx="20.4" ry="4.55"/><ellipse class="cls-6" cx="235.23" cy="52.73" rx="26.36" ry="3.64"/><ellipse class="cls-6" cx="351.39" cy="52.73" rx="17.07" ry="3.64"/><ellipse class="cls-6" cx="457.95" cy="43.64" rx="20" ry="5.45"/><ellipse class="cls-6" cx="533.41" cy="52.73" rx="15.45" ry="3.64"/><ellipse class="cls-6" cx="165.23" cy="43.64" rx="20" ry="5.45"/><ellipse class="cls-6" cx="299.64" cy="34.55" rx="16.23" ry="3.64"/><ellipse class="cls-6" cx="387.76" cy="39.09" rx="19.29" ry="4.55"/><ellipse class="cls-6" cx="442.5" cy="16.14" rx="15.45" ry="3.41"/><ellipse class="cls-6" cx="226.14" cy="26.36" rx="17.27" ry="4.55"/><ellipse class="cls-6" cx="497.95" cy="21.82" rx="20" ry="4.55"/><ellipse class="cls-6" cx="554.32" cy="35.45" rx="14.55" ry="3.64"/><ellipse class="cls-6" cx="293.27" cy="16.14" rx="22.59" ry="3.41"/></g></svg>