<svg id="el_Skk-Ikw27" data-name="Layer 1" xmlns="http://www.w3.org/2000/svg" viewBox="0 0 1080 1080"><style>@-webkit-keyframes el_HkKkbUJw3Q_BJKWIkP3Q_Animation{0%{-webkit-transform: translate(544.5067138671875px, 221.1222686767578px) translate(-544.5067138671875px, -221.1222686767578px) translate(0px, -25px);transform: translate(544.5067138671875px, 221.1222686767578px) translate(-544.5067138671875px, -221.1222686767578px) translate(0px, -25px);}50%{-webkit-transform: translate(544.5067138671875px, 221.1222686767578px) translate(-544.5067138671875px, -221.1222686767578px) translate(0px, 0px);transform: translate(544.5067138671875px, 221.1222686767578px) translate(-544.5067138671875px, -221.1222686767578px) translate(0px, 0px);}100%{-webkit-transform: translate(544.5067138671875px, 221.1222686767578px) translate(-544.5067138671875px, -221.1222686767578px) translate(0px, -25px);transform: translate(544.5067138671875px, 221.1222686767578px) translate(-544.5067138671875px, -221.1222686767578px) translate(0px, -25px);}}@keyframes el_HkKkbUJw3Q_BJKWIkP3Q_Animation{0%{-webkit-transform: translate(544.5067138671875px, 221.1222686767578px) translate(-544.5067138671875px, -221.1222686767578px) translate(0px, -25px);transform: translate(544.5067138671875px, 221.1222686767578px) translate(-544.5067138671875px, -221.1222686767578px) translate(0px, -25px);}50%{-webkit-transform: translate(544.5067138671875px, 221.1222686767578px) translate(-544.5067138671875px, -221.1222686767578px) translate(0px, 0px);transform: translate(544.5067138671875px, 221.1222686767578px) translate(-544.5067138671875px, -221.1222686767578px) translate(0px, 0px);}100%{-webkit-transform: translate(544.5067138671875px, 221.1222686767578px) translate(-544.5067138671875px, -221.1222686767578px) translate(0px, -25px);transform: translate(544.5067138671875px, 221.1222686767578px) translate(-544.5067138671875px, -221.1222686767578px) translate(0px, -25px);}}#el_Skk-Ikw27 *{-webkit-animation-duration: 2s;animation-duration: 2s;-webkit-animation-iteration-count: infinite;animation-iteration-count: infinite;-webkit-animation-timing-function: cubic-bezier(0, 0, 1, 1);animation-timing-function: cubic-bezier(0, 0, 1, 1);}#el_rJMJWLywhQ{fill: #c1e86a;-webkit-transform: translate(-230.54px, -210.83px);transform: translate(-230.54px, -210.83px);}#el_rJ7y-LJP2X{-webkit-transform: translate(-230.54px, -210.83px);transform: translate(-230.54px, -210.83px);}#el_Hk41ZLkP3X{-webkit-transform: translate(-230.54px, -210.83px);transform: translate(-230.54px, -210.83px);}#el_S1SkZUJD37{fill: #134b00;}#el_H1DJZU1P2Q{fill: #fff;-webkit-transform: translate(-230.54px, -210.83px);transform: translate(-230.54px, -210.83px);}#el_ryuy-8Jw37{-webkit-transform: translate(-230.54px, -210.83px);transform: translate(-230.54px, -210.83px);}#el_HJqJZ8yw37{fill: #c1e86a;-webkit-transform: translate(-230.54px, -210.83px);transform: translate(-230.54px, -210.83px);}#el_SJiJ-UJv3X{-webkit-transform: translate(-230.54px, -210.83px);transform: translate(-230.54px, -210.83px);}#el_BkCyW8JP37{fill: #fff;-webkit-transform: translate(-230.54px, -210.83px);transform: translate(-230.54px, -210.83px);}#el_S1yxJW8JPn7{-webkit-transform: translate(-230.54px, -210.83px);transform: translate(-230.54px, -210.83px);}#el_SJggyW8kDnm{-webkit-transform: translate(-230.54px, -210.83px);transform: translate(-230.54px, -210.83px);}#el_H17e1W8yP3Q{fill: #fff;-webkit-transform: translate(-230.54px, -210.83px);transform: translate(-230.54px, -210.83px);}#el_rJVeJ-8yvh7{-webkit-transform: translate(-230.54px, -210.83px);transform: translate(-230.54px, -210.83px);}#el_S1Bey-UyP3m{-webkit-transform: translate(-230.54px, -210.83px);transform: translate(-230.54px, -210.83px);}#el_HkKkbUJw3Q_BJKWIkP3Q{-webkit-animation-name: el_HkKkbUJw3Q_BJKWIkP3Q_Animation;animation-name: el_HkKkbUJw3Q_BJKWIkP3Q_Animation;-webkit-transform: translate(544.5067138671875px, 221.1222686767578px) translate(-544.5067138671875px, -221.1222686767578px) translate(0px, -25px);transform: translate(544.5067138671875px, 221.1222686767578px) translate(-544.5067138671875px, -221.1222686767578px) translate(0px, -25px);}</style>
  <defs>
    
  </defs>
  <title>down</title>
  <g id="el_BkxyWUkDhm">
    <g id="el_rkWybIkP2X">
      <path d="M417.36,220.4a2459,2459,0,0,1,348.76,12.86c7.24.78,15.33,2.07,19.64,7.94,3.93,5.35,3.33,12.65,2.55,19.24Q768.2,430.17,748.09,599.9c-6.73,56.84-14.05,115.49-42.86,165-12.16,20.89-28.76,40.25-50.94,49.86-19.25,8.35-40.9,8.66-61.88,8.36a1373,1373,0,0,1-224.92-21.83c-42.76-7.74-89.44-20.35-113.22-56.72C229.1,706,240.52,650.75,273.5,618.7s82.5-42.87,128.12-37.05A3106.62,3106.62,0,0,1,413.44,230" id="el_rJMJWLywhQ"/>
      <path d="M799,248.21a21.06,21.06,0,0,0-1.11-3.89,23.25,23.25,0,0,0-.4-4,15.53,15.53,0,0,0-6.83-9.71,30,30,0,0,0-8-3.61,46.33,46.33,0,0,0-4.79-1c-10.64-1.68-21.44-2.38-32.15-3.43Q668.29,215,590.57,212.31c-54.93-1.89-109.94-2.09-164.85.1a4.08,4.08,0,0,0-2.36,1.13c-2.06.12-4.12.24-6.18.39a2.46,2.46,0,0,0-1.59,1c-.42.4-.83.81-1.22,1.23A3.55,3.55,0,0,0,412,215a9.3,9.3,0,0,0-5.67,4.82c-.21,2.48-.43,4.95-.64,7.43,0,.11-.05.22-.06.33-5.16,58.52-9.13,117.15-10.8,175.89-.75,26.18-1.14,52.37-1,78.57.11,17.79.52,35.58.42,53.38-.07,12.09-.29,24.17-.53,36.26-5.86-.39-11.73-.56-17.64-.39-4.77.13-9.54.45-14.28.94a175.14,175.14,0,0,0-25.93,3.11c-22.88,4.55-44.84,14-62.83,28.95A103.55,103.55,0,0,0,258.25,619c-3.06,3.82-5.75,7.58-8.5,11.66-1.51,2.24-2.93,4.77-4.22,7.16a107.67,107.67,0,0,0-6.32,13.83,118.53,118.53,0,0,0-6.81,28,102.87,102.87,0,0,0-1.33,29.71,87.25,87.25,0,0,0,12.12,36.23,91.34,91.34,0,0,0,16.86,20.12,110.11,110.11,0,0,0,20.88,16.05,149,149,0,0,0,16.45,8.42l.63.3c15.46,7.1,31.93,11.72,48.47,15.48,17.63,4,35.58,7,53.43,9.71,24.9,3.86,49.88,7.16,74.95,9.74,40.38,4.15,80.88,6.27,121.45,7.44a210.66,210.66,0,0,0,32.55-1.14,98.3,98.3,0,0,0,19.8-4.66c.47-.16.93-.34,1.4-.51a81.26,81.26,0,0,0,13.77-5.15c11.36-5.51,21.34-13.72,29.86-23,15-16.35,25.84-36.33,34.08-56.83,10.73-26.68,16.87-55,21.33-83.31,2.55-16.26,4.51-32.6,6.46-48.94Q759,581,762.3,552.71c11.25-94.35,22.55-188.69,34.89-282.9A60,60,0,0,0,799,258.7a17.45,17.45,0,0,0,0-1.92c.1-.59.18-1.19.25-1.78A23.08,23.08,0,0,0,799,248.21Zm-545,457.28-.33-7.1c0,.61,0,1.21,0,1.81,0-2.92.08-5.83.29-8.73.27-2,.61-4,1-6,.59-2.53,1.19-5.06,1.78-7.59l2.2-7.05a138,138,0,0,1,8.61-18.86,99.49,99.49,0,0,1,11.9-16.77,115.77,115.77,0,0,1,35.08-26.5A141,141,0,0,1,344,598c4.21-.78,8.44-1.44,12.71-1.92A162.64,162.64,0,0,1,378.72,595a230.38,230.38,0,0,1,26.49,2.32,3.55,3.55,0,0,0,2.79-1.55,3.69,3.69,0,0,0,.42-.58c1.62.2,3.25.41,4.87.64,1.38.19,3.87-1.31,3.81-3l-.24-5.57a3.34,3.34,0,0,0,.14-2c-.44-14.11-1-28.21-1.43-42.32-.48-16.32-.37-32.64-.12-49,.46-29.93,1.14-59.86,2.34-89.77q3.38-84,10.63-167.77,107.38-3.44,214.77,2.9,53.12,3.1,106.06,8.49l19.24,2a59,59,0,0,1,6.07,1c.8.2,1.56.42,2.3.67a19.56,19.56,0,0,1-.09,3.25c-.76,2.82-1.37,5.66-1.85,8.54-.06.25-.12.51-.19.77-.28,1-.51,1.94-.7,2.93l-2.85,18.56c-4.64,31-8.52,62.16-12.49,93.27-8.41,65.83-16.25,131.74-24.12,197.64-4.87,40.84-8.61,82.27-18.94,122.19a278.32,278.32,0,0,1-9.69,28.06A201.51,201.51,0,0,1,688,761.65c-9.51,14.41-21.36,27.89-36.45,36.64a78.55,78.55,0,0,1-26.33,9.32,139.56,139.56,0,0,1-25.59,1.55c-3.76,0-7.51-.13-11.27-.33q-13.05-.69-26.12-1-37.28-1.54-74.45-4.88c-4.64-.43-9.29-.88-13.92-1.35q-24.18-2.66-48.26-6.14c-21.17-3.07-42.39-6.39-63.35-10.71s-42.43-9.9-61.56-20c-18.62-9.86-35.29-24.82-43.09-44.77a75.66,75.66,0,0,1-3.16-10.28Z" id="el_rJ7y-LJP2X"/>
    </g>
    <path d="M671.07,703.06a3.08,3.08,0,0,0-.23-1c-.07-1.25-.14-2.51-.24-3.74a5.31,5.31,0,0,0-2-3c-.1-1.12-.22-2.24-.38-3.36a10.34,10.34,0,0,0-1.89-2.28,9.87,9.87,0,0,0-2.35-1.82c-1.3-.34-1.83.67-1.72,1.77,0,.13,0,.25.05.38a5.18,5.18,0,0,0-3.14-2,2.9,2.9,0,0,0-1.59.59c-.78-1.42-2.49-2.82-3.8-2.8-1.68,0-4.24,2.66-4.22,4.34,0,1.87,0,3.75,0,5.63a13.51,13.51,0,0,0-2.85,4c.07,5,.12,9.89-.11,14.83A87.75,87.75,0,0,1,645.54,726a38.24,38.24,0,0,1-3.69,7l-2.14,2.93-2.57,2.76L634.41,741l-2.95,1.91a21.89,21.89,0,0,1-7.17,2.59c-1.21.32-2.34.72-2.85,2a4.11,4.11,0,0,0,.73,4,2.67,2.67,0,0,0,.94.67,4.35,4.35,0,0,0,.1,2l-.66.18c-1.3.37-2.69.66-3.3,2a3.7,3.7,0,0,0,.81,4,4,4,0,0,0,2.4,1,4.13,4.13,0,0,0,1,2.72c.88,1,2.28,1,3.56,1a5.32,5.32,0,0,0,.29,1.09,2.55,2.55,0,0,0,2.59,1.64,14.66,14.66,0,0,0,4.76-.3,36.17,36.17,0,0,0,4.09-1.47,4.36,4.36,0,0,0,1.94-.24l4.59-1.49a30.76,30.76,0,0,0,8.21-4.85,42.16,42.16,0,0,0,10.07-11.93C671.36,734.12,671.72,718.16,671.07,703.06Z" id="el_Hk41ZLkP3X"/>
  </g>
  <polygon id="el_S1SkZUJD37" points="184.5 104.92 356.39 111.92 537.49 140.61 517.25 317.93 343.26 303.66 177.34 277.07 184.5 104.92"/>
  <g id="el_H1UJZIkwh7">
    <path d="M668.29,571.58C637.5,549.86,600.14,538.79,562.65,535s-75.34-.63-112.73,4c7.41-25.48,29.67-46,55.65-51.41,11.23-2.32,22.87-2,34.26-.6,30.54,3.7,59.78,14.73,87.22,28.63,19.57,9.92,40.19,23.76,44.55,45.26" id="el_H1DJZU1P2Q"/>
    <path d="M681.77,564.43a78.57,78.57,0,0,0-1.89-7.71,32.54,32.54,0,0,0-1.72-6.51,22.13,22.13,0,0,0-2-5.1,53.27,53.27,0,0,0-7.51-11.55,89.58,89.58,0,0,0-18-15.67c-11.13-7.59-23.44-13.73-35.73-19.17-17.84-7.9-36.49-14.78-55.72-18.39-6.25-1.18-12.56-2.19-18.88-2.91a100.3,100.3,0,0,0-22.11-.38l-.73.1c-1,0-2.06,0-3.09,0a83.12,83.12,0,0,0-29.4,5.74,78.07,78.07,0,0,0-14.55,7.81,94.53,94.53,0,0,0-12.81,10,115.22,115.22,0,0,0-8.74,9.34q-3.42,4.05-6.66,8.26a28.53,28.53,0,0,1-5.86,6.16c-2.26,2.14-.38,4.46,1.22,6.21a2.37,2.37,0,0,0-.14.57c-.77.92-1.56,1.83-2.39,2.72-1.41,1.64-1.49,3-.18,4.74l1.84,2.05c.2.22.42.42.63.62a5.94,5.94,0,0,0,1.2,1.93c.71.84,2.5,2.9,3.76,2.74l.37,0c.06.09.11.18.18.27a3,3,0,0,0,2.46,1.46c21-2.71,42-5.17,63.19-6.18,20.15-1,40.54-.8,60.56,1.78a256.46,256.46,0,0,1,44.29,9.39q7.83,2.46,15.43,5.58c2.33,1,4.65,2.07,6.94,3.17A273.91,273.91,0,0,1,659.92,575a3.85,3.85,0,0,0,1.89.39l2,1.19a7.38,7.38,0,0,0,2.39,0c0,.21.07.43.1.64a3.66,3.66,0,0,0,5.83.92,15.39,15.39,0,0,0,1.24-3.31,5.32,5.32,0,0,0,.56-.06l.07.44a4,4,0,0,0,5.83.91,15.73,15.73,0,0,0,1.63-8.67A11.78,11.78,0,0,0,681.77,564.43ZM487.57,510a98.47,98.47,0,0,1,13.31-7l5.68-1.95,3.42-.6,6.95-.6,6.71-.05a183.34,183.34,0,0,1,19.79,2.29,239.54,239.54,0,0,1,27.21,6.32A277.05,277.05,0,0,1,597,518q7.82,3.25,15.39,7c3.48,1.64,6.9,3.37,10.31,5.15a243.5,243.5,0,0,0-45.78-9.6c-2.26-.26-4.53-.49-6.79-.71-31.39-4.39-62.91-3.54-94.31-.66a48.26,48.26,0,0,1,4.45-3.6A41.53,41.53,0,0,1,487.57,510Z" id="el_ryuy-8Jw37"/>
  </g>
  <g id="el_HkKkbUJw3Q_BJKWIkP3Q" data-animator-group="true" data-animator-type="0"><g id="el_HkKkbUJw3Q" data-name="&lt;thumbsdown">
    <path d="M794.45,568.47A139.3,139.3,0,0,0,806.38,606c5.92,12.27,15.68,24.9,29.29,25.56,12.56.62,23.5-9.84,27.67-21.69s3.12-24.82,2-37.34c12,2,24.3,4,36.42,2.54s24.32-7.07,31-17.3c4.67-7.15,6.25-15.84,7.22-24.32a213.8,213.8,0,0,0,1.18-33.94c-.58-13.06-2.77-27-11.64-36.57-10.64-11.52-27.83-13.7-43.51-14.29q-16.57-.62-33.16,0c-21.06.85-45.7,5.7-54.61,24.8-2.77,6-3.59,12.61-4.21,19.14a419.38,419.38,0,0,0-.55,73.31" id="el_HJqJZ8yw37"/>
    <path d="M956.34,488.52c-.19-1.54-.44-3.07-.72-4.6a1.49,1.49,0,0,0,0-.21,101.33,101.33,0,0,0-1.71-10.93,57.42,57.42,0,0,0-4.52-13,33.89,33.89,0,0,0-4.26-7.19l-3.85-4.19a48.35,48.35,0,0,0-10.63-7.24,83.65,83.65,0,0,0-8.72-3.59,81.16,81.16,0,0,0-13.81-3.1,83,83,0,0,0-9.82-.82,102.17,102.17,0,0,0-13.15-1.29c-8.41-.34-16.87-.47-25.28-.38-7.49.07-15,.25-22.49.94a109.86,109.86,0,0,0-24.09,4.77c-7.58,2.48-15,6.22-20.9,11.75a42.41,42.41,0,0,0-8.29,11,31,31,0,0,0-2.5,6.25,67.41,67.41,0,0,0-1.93,8.43,70.81,70.81,0,0,0-2.15,8.43,89.87,89.87,0,0,0-1.1,11.81l-.94,15.44q-.57,11.49-.39,23c.07,12.71.82,25.3,1.76,38a4.54,4.54,0,0,0,2.1,2.77l.22.08c-.12.33-.24.66-.33,1,2.21,10.29,4.63,20.52,8.82,30.23a91,91,0,0,0,11.79,20.75,67.27,67.27,0,0,0,5.87,7.57,41.45,41.45,0,0,0,7.67,6.62,38.91,38.91,0,0,0,3.34,2.72,28.94,28.94,0,0,0,9.3,4.85,44.18,44.18,0,0,0,4.82,1.09,27.52,27.52,0,0,0,10.76-1c.94-.27,1.86-.58,2.78-.92a35.5,35.5,0,0,0,7.28-1.42,37.49,37.49,0,0,0,13.56-7.59c3.94-3.41,8.06-7.36,10.34-12.1a64,64,0,0,0,6-20.58c.22-1.92.34-3.86.42-5.79A109.55,109.55,0,0,0,882,586.6a102,102,0,0,0,12.87,2.18c6.61.62,13.33.6,19.79-1.1.64-.16,1.27-.35,1.89-.55.43,0,.87-.07,1.3-.12a46.49,46.49,0,0,0,10.27-2.73,43.16,43.16,0,0,0,17.59-12c2.73-3.19,4.46-7.59,5.84-11.51a71,71,0,0,0,3.07-12.45c.65-4.15,1-8.36,1.3-12.56l.33-3.14C957.7,518,958.23,503.09,956.34,488.52ZM835.82,625.61a23,23,0,0,1-3.55-1.22,39.39,39.39,0,0,1-8-5.61,48.58,48.58,0,0,1-6.91-8A83.81,83.81,0,0,1,808.54,594c-.31-.88-.62-1.77-.91-2.67q-2.86-9.27-5-18.74a4.24,4.24,0,0,0-1.33-1.87l-.86-3.35c-.86-11.26-1.54-22.5-1.67-33.81,0-.42,0-.84,0-1.25q0-4,.11-8,.06-11.66.92-23.28c.07-3.34.12-6.66.41-10a26.8,26.8,0,0,1,1.33-7.49,25.87,25.87,0,0,1,2.17-6l5.44-7.56q1.77-1.58,3.52-3.17a37.56,37.56,0,0,1,7.45-4.65,63.25,63.25,0,0,1,8.28-2.6A128.64,128.64,0,0,1,843.2,457c12.59-1.48,25.42-.9,38.06-1,6.65-.06,13.17.11,19.79.68l5,.73,4.7,1.11,8.15,3.21c.42.26.85.52,1.26.8l3.18,2.61.45.51,2.52,3.58a42.89,42.89,0,0,1,3.9,8.52l1.38,4.75a95.42,95.42,0,0,1,2.61,20.48A162.18,162.18,0,0,1,934.3,520q-.48,6.79-.85,13.59-.13,3.31-.54,6.61c0,.37-.09.73-.14,1.1-.32,1.28-.69,2.54-1.11,3.8s-1.07,2.44-1.6,3.66c-2.41,3.9-4.88,7.37-8.67,10.13a39.8,39.8,0,0,1-18.71,7.28l-.87.08a60.16,60.16,0,0,1-14.67-2.48l1.49.47a34.14,34.14,0,0,1-11-5.16c-1.66-1-4.36.81-5.86,1.95l-.56-.26a2,2,0,0,0-2.29-.15l-.29.1c-1.18-.55-2.34-1.14-3.47-1.8l-1.26-.58a4,4,0,0,0-2.29.83c-.77.46-3.2,2-3,3.1q.42,3,.83,6c-.94.32-1.83,1.17-1.71,2.08.6,4.54,1.23,9.08,1.64,13.65a121,121,0,0,1,.35,14.25l-.47,4.08a36.62,36.62,0,0,1-5.79,12.18Z" id="el_SJiJ-UJv3X"/>
  </g></g>
  <g id="el_r121WL1wn7">
    <g id="el_SkTyWL1v27" data-name="right eye">
      <path d="M656.76,310.31c-24.81,6-49.24,17.78-65,38s-21,50.2-7.92,72.32c8.51,14.36,23.28,23.73,38.29,30.82,20.91,9.9,44.08,16.5,67,13.79s45.53-16.07,55-37.38c4.35-9.79,5.79-20.66,6-31.38.14-9.09-.63-18.3-3.51-26.9-5.88-17.6-20.19-31.28-36.31-40.17s-34.12-13.58-51.91-18.19" id="el_BkCyW8JP37"/>
      <path d="M766.29,395.12A100,100,0,0,0,764.56,376a87,87,0,0,0-2.21-12.89c-3.08-12.16-10.09-22.87-19-31.54a108.69,108.69,0,0,0-29.72-20.14c-16.29-7.74-33.69-12.06-51.16-16.2a4.85,4.85,0,0,0-2.86.92c-3-.76-6-1.5-9.08-2.24a4.22,4.22,0,0,0-3.25,1.21,3.7,3.7,0,0,0-.73,1.38,16.85,16.85,0,0,0-2.28-.73c-4.46,1.2-8.38,2.25-12.69,3.66a145.39,145.39,0,0,0-18.31,7.45,105.27,105.27,0,0,0-32.2,24.14,80.56,80.56,0,0,0-18.66,37.6,78.14,78.14,0,0,0-3.37,14.84,73.65,73.65,0,0,0,.37,19.84,63.56,63.56,0,0,0,5.87,18.94,68.51,68.51,0,0,0,7.9,12.06c.78,1.15,1.59,2.27,2.43,3.38a76.37,76.37,0,0,0,15.5,14.7c.93.67,1.87,1.33,2.81,2q3.48,2.67,7.11,5.1c10.5,7,22.34,12.08,34.25,16.12a154.58,154.58,0,0,0,19.86,5.3,109,109,0,0,0,20.28,2.27,99.79,99.79,0,0,0,22.18-2.28,87.1,87.1,0,0,0,11.67-2.27,84.3,84.3,0,0,0,29.25-14.14,76.44,76.44,0,0,0,12-11.14,47,47,0,0,0,5.35-8.13,54.43,54.43,0,0,0,4.29-8.86,91.76,91.76,0,0,0,5.46-27.86A132.64,132.64,0,0,0,766.29,395.12Zm-76.39,64a94.33,94.33,0,0,1-14.75-.11l-7.57-.9a133.85,133.85,0,0,1-26-6.83q-9.91-3.54-19.44-8-4.35-2-8.48-4.33A97.74,97.74,0,0,1,602,431.19l1,.73A55.86,55.86,0,0,1,586.68,413q-1.17-2.59-2.33-5.19c-.4-1.79-.79-3.59-1.18-5.38-.22-1.9-.43-3.79-.65-5.69l0-2.23c.11-1.61.22-3.23.32-4.85.28-1.88.55-3.77.83-5.65s.84-3.61,1.25-5.42a92.06,92.06,0,0,1,6.75-16.56c4-7.41,9.78-13.75,16-19.32a69.73,69.73,0,0,1,9-7.16,73.53,73.53,0,0,1,13-7.46c1-.55,2-1.07,3-1.57,6.45-2.57,13.06-4.65,19.7-6.79a3.87,3.87,0,0,0,1.56-1.21l1.32-.44c14.45,3.43,29.08,6.76,42.82,12.52l1.32.57a102.16,102.16,0,0,1,13.84,7.41l5.13,3.56a90.5,90.5,0,0,1,7.28,6.11c1.22,1.36,2.43,2.72,3.65,4.07,1.16,1.55,2.31,3.1,3.47,4.64l3,4.94a57.69,57.69,0,0,1,4.38,10.64,51.59,51.59,0,0,1,1.84,8,106,106,0,0,1,1.5,17.05,96.81,96.81,0,0,1-.85,14.56l-.05.26-1.75,5.92c-.7,1.73-1.41,3.46-2.11,5.18a57.84,57.84,0,0,1-6,9.81l-3.78,4.47a64.55,64.55,0,0,1-13.64,11.23A75.85,75.85,0,0,1,690.56,459Z" id="el_S1yxJW8JPn7"/>
    </g>
    <path d="M696.45,385.24a13.51,13.51,0,0,0-1.07-3c0-.28,0-.56,0-.87-.18-3.39-.85-6.58-3-9.32a15.88,15.88,0,0,0-11.7-6.2,10.44,10.44,0,0,0-5.21,1.27,15.38,15.38,0,0,0-2.31-1.13L673,366a3.77,3.77,0,0,0-3.16-1.84,10.49,10.49,0,0,0-4.62,1.3,3.25,3.25,0,0,0-1.39-.25,12.92,12.92,0,0,0-2.59.3l-.24-.39a3.74,3.74,0,0,0-3.25-2.36,9.17,9.17,0,0,0-4.53,1,13,13,0,0,0-5.06,4.54,28.09,28.09,0,0,0-2.55,6,17.52,17.52,0,0,0-1.2,6.15c0,.35.06.7.1,1.05-.21.47-.42.95-.61,1.42a19.13,19.13,0,0,0-1.36,4.75,12.77,12.77,0,0,0,3.29,10.52,16.57,16.57,0,0,0,1.67,1.57,17.75,17.75,0,0,0,7.3,6.47l.13.06a24.24,24.24,0,0,0,2.75,2,22.58,22.58,0,0,0,7.72,3.14,13.59,13.59,0,0,0,7.69.56,9.05,9.05,0,0,0,3.24-1.57l.1,0c.45,0,.89.06,1.34.07a9.71,9.71,0,0,0,5.59-1.43l.29-.17A22.49,22.49,0,0,0,688,407a20.13,20.13,0,0,0,6.94-5.29,10.5,10.5,0,0,0,1.94-5.62,11.73,11.73,0,0,0-.22-3.06A14.65,14.65,0,0,0,696.45,385.24Z" id="el_SJggyW8kDnm"/>
  </g>
  <g id="el_ryWgybIJv2m">
    <g id="el_SJzlkWUJD3Q" data-name="left eye">
      <path d="M510.34,309.11c-8.46-4.47-18.91-3.83-27.81-.34s-16.54,9.55-23.78,15.8c-10.34,8.91-20.3,18.54-27.33,30.24s-10.91,25.75-8.28,39.14c4,20.44,22.09,35.26,40.94,44.11s39.86,13.52,60.39,10.63,40.33-13.94,51.35-31.5c5.94-9.48,9.2-20.5,10.32-31.64,2.1-20.76-3.41-42.52-16.53-58.74s-34.07-26.3-54.88-24.77" id="el_H17e1W8yP3Q"/>
      <path d="M601.58,362.05c-.23-1.31-.49-2.6-.77-3.89a71.87,71.87,0,0,0-1.89-11.27,86.37,86.37,0,0,0-17.48-34.33,74.21,74.21,0,0,0-14.69-12.82,95.25,95.25,0,0,0-11.23-6.43,71.49,71.49,0,0,0-18.36-6l-6.4-.9c-1.61-.1-3.22-.13-4.82-.13l-.57-.12-6.46-1a74.12,74.12,0,0,0-12.9.24,4.43,4.43,0,0,0-3.07,1.62,3.29,3.29,0,0,0-.38,3c-.69,0-1.37,0-2.06.07a16.69,16.69,0,0,0-3.77-1,21.9,21.9,0,0,0-6.76-.6,48.31,48.31,0,0,0-11.91,2.08c-9.81,2.92-18.49,8.7-26.3,15.18-18,15-36.55,32.28-42.89,55.69-.41,1.53-.75,3.07-1,4.62a51.14,51.14,0,0,0-2.63,10,61.06,61.06,0,0,0-.47,14.42,54.66,54.66,0,0,0,4.72,17.78,62.6,62.6,0,0,0,8.93,14.14c.8,1.15,1.63,2.29,2.49,3.4A77.86,77.86,0,0,0,435.1,439.6c1.25.95,2.51,1.86,3.79,2.75a102.6,102.6,0,0,0,8.4,6,115.15,115.15,0,0,0,14.34,7.84,111.89,111.89,0,0,0,11.87,4.39A97.48,97.48,0,0,0,485.6,464a112.52,112.52,0,0,0,41.5,1.49q3.23-.51,6.39-1.31a88.56,88.56,0,0,0,30.93-10.7c11-6.33,21.22-15.16,27.31-26.49A87.94,87.94,0,0,0,602,391c0-.43,0-.86.07-1.29.17-1.47.33-2.93.44-4.38A95,95,0,0,0,601.58,362.05Zm-84,81.06a98.94,98.94,0,0,1-15-1,114.27,114.27,0,0,1-15.18-3.26,151.1,151.1,0,0,1-20-7.41,101.46,101.46,0,0,1-15.31-8.55,62.45,62.45,0,0,1-22.88-28.11l-.45-2.16c-.14-1.47-.27-2.94-.4-4.41,0-.16,0-.32,0-.48.18-1.62.35-3.24.53-4.87s.59-3,.89-4.56a70.08,70.08,0,0,1,5.4-14.34,96,96,0,0,1,7.44-11.43,134,134,0,0,1,13.79-15.28c3.74-3.67,7.5-7.32,11.41-10.8C473.35,321.52,479.28,317,486,314l.12,0,3.73-.84a28.79,28.79,0,0,1,8.08-.22,21.57,21.57,0,0,1,7.58,1.8,9.47,9.47,0,0,0,5.63-1.74,1.87,1.87,0,0,0,.35-1c.53.19,1.06.39,1.58.62a8,8,0,0,0,2.94-.47,7.81,7.81,0,0,0,2.69-1.26,1.84,1.84,0,0,0,0-2.32,56.78,56.78,0,0,1,8.53.65,61.74,61.74,0,0,1,11.23,2.73c2,.67,3.89,1.44,5.78,2.29l1,.48,4.88,2.85,4.67,3.31,4.45,3.72,1.59,1.59,4.07,5,3.69,5.49,3.22,5.87a60,60,0,0,1,3.9,9.72,41.9,41.9,0,0,1,2,6.77,82.91,82.91,0,0,1,1.69,31.57l-1.23,5-2.12,6.18-2.73,5.93c-3.25,5.47-6.58,10.62-11.21,15.08a74.38,74.38,0,0,1-12.47,9.73,78.18,78.18,0,0,1-25.64,10.24Z" id="el_rJVeJ-8yvh7"/>
    </g>
    <path d="M540.34,381.14a18.67,18.67,0,0,0-.65-5.31,21.1,21.1,0,0,0-.81-2.73,22.27,22.27,0,0,0-1.24-7,18.38,18.38,0,0,0-1.5-3.43A12.35,12.35,0,0,0,532,358.9a12.75,12.75,0,0,0-5.74-2.57l-4-.83-4.19.12c-.94.05-1.91.15-2.88.3l-1.66-.42a26.17,26.17,0,0,0-5.21-.74,27.31,27.31,0,0,0-7.92,1,16,16,0,0,0-3.17-1.79c-4.4.43-8.48.86-11.89,4-1.48,1.35-3.35,3.2-3.84,5.18a23.34,23.34,0,0,0-.61,4.47,17.75,17.75,0,0,0,.11,2.63l-.26.36a11.49,11.49,0,0,0-1.85,6.52,17.68,17.68,0,0,0,.8,5.67,9.66,9.66,0,0,0,.71,3.22,10.14,10.14,0,0,0,1.18,2.29,8.65,8.65,0,0,0,1.47,1c.2.28.41.55.62.82,0,.09.07.18.11.27a6.25,6.25,0,0,0,2.38,2.64q.48.71,1,1.41a39.39,39.39,0,0,0,9.38,8.3,25.61,25.61,0,0,0,5.13,3.42c2.43,1.2,5.26,2.54,8,2.7a21.12,21.12,0,0,0,9.23-1.63l.59-.25c.67,0,1.34,0,2-.06a22.7,22.7,0,0,0,7.92-2.47,25.24,25.24,0,0,0,6.32-5.69,19.56,19.56,0,0,0,2.65-4.08,18.06,18.06,0,0,0,1.52-6.13,18.55,18.55,0,0,0,0-3.87A26,26,0,0,0,540.34,381.14Z" id="el_S1Bey-UyP3m"/>
  </g>
</svg>